<?xml version="1.0" encoding="UTF-8"?>
<svg id="Layer_1" data-name="Layer 1" xmlns="http://www.w3.org/2000/svg" viewBox="0 0 697.35 440.44">
  <defs>
    <style>
      .cls-1 {
        fill: #053411;
      }
    </style>
  </defs>
  <path class="cls-1" d="M690.01,81.09C678,37.13,573.72-5.2,494.13.52c-57.09,4.11-102.8,27.42-148.51,50.12-44.04,22.55-84.14,46.52-136.89,51.28-49.4,4.46-97.96-6.19-107.12-32.78-.99-2.88-1.31-5.6-1.03-8.15.71-6.56-7.61-11.62-16.15-9.67h0c-7.11,1.63-10.65,7.42-7.77,12.48,20.5,36.05,81.98,58.57,157.48,51.75,48.56-4.39,88.86-25.28,130.53-47.17,43.89-22.98,90.13-46.35,148.61-52.34,75.71-7.76,152.81,40.42,161.53,61.28"/>
  <path class="cls-1" d="M673.45,69.53c5.42.86,5.27-.09,7-3.17.02-.04-.5,3.32-.49,3.28"/>
  <path class="cls-1" d="M34.08,368.45c-12.95-17.15-26.42-39.6-20.57-61.99,5.12-19.61,23.15-32.59,40.07-41.72,25.02-13.49,52.95-21.45,80.45-28.1,35.34-8.54,71.28-14.75,107.52-17.87,60.5-5.21,120.64-.19,181.13,1.53,60.81,1.73,122.14-3.63,179.84-24.02,45.43-16.06,114.26-53.39,89.68-112.43-2.89-6.95-6.68-13.36-11.09-19.45s-15.34-.22-10.66,6.23c7.87,10.86,14.42,23.33,14.53,37.05.09,11.26-4.39,21.8-11.2,30.62-17.57,22.75-46.72,36.09-73.07,45.55-57.38,20.6-118.16,25.85-178.69,24.09-60.55-1.77-120.75-6.74-181.3-1.44-36.28,3.17-72.29,9.26-107.71,17.69-28.21,6.72-56.64,14.92-82.53,28.24-18.41,9.47-37.3,22.77-45.87,42.34-9.07,20.72-3.68,42.98,6.95,62.02,3.49,6.26,7.54,12.17,11.86,17.89,4.73,6.26,15.46.12,10.66-6.23h0Z"/>
  <path class="cls-1" d="M631.65,370.96c-21.34-35.77-83.33-57.49-158.66-49.68-48.46,5.02-88.26,26.44-129.42,48.88-43.35,23.56-89.04,47.52-147.38,54.29-75.51,8.75-149.29-35.58-161.52-55.21l-19.18-10.88c11.49,46.53,120.77,88.12,200.21,81.35,56.99-4.86,102.15-28.76,147.33-52.06,43.51-23.13,83.04-47.62,135.68-53.07,49.29-5.11,98.09,4.9,107.86,31.37,1.06,2.87,1.44,5.59,1.22,8.13-.55,6.57,7.88,11.52,16.37,9.46,7.07-1.72,10.48-7.56,7.48-12.58Z"/>
  <path class="cls-1" d="M562.62,51.25c-.29,10.1-6.83,17.24-16.85,18.58s-15.04-7.73-16.31-17.76c-.85-6.74,5.98-20.38,16.31-18.85s17.08,10.18,16.85,18.03Z"/>
</svg>